<?xml version="1.0" encoding="UTF-8"?>
<svg width="9px" height="9px" viewBox="0 0 9 9" version="1.1" xmlns="http://www.w3.org/2000/svg" xmlns:xlink="http://www.w3.org/1999/xlink">
    <!-- Generator: Sketch 54.1 (76490) - https://sketchapp.com -->
    <title>icons/link</title>
    <desc>Created with Sketch.</desc>
    <g id="Page-1" stroke="none" stroke-width="1" fill="none" fill-rule="evenodd">
        <g id="Block-Estates-:-Page-5" transform="translate(-120.000000, -2529.000000)" fill="black" fill-rule="nonzero">
            <g id="04" transform="translate(120.000000, 2321.000000)">
                <g id="icons/link" transform="translate(0.000000, 208.000000)">
                    <path d="M5.58578644,2 L1,2 C0.44771525,2 0,1.55228475 0,1 C0,0.44771525 0.44771525,-1.42108547e-14 1,-1.42108547e-14 L9,-1.42108547e-14 L9,8 C9,8.55228475 8.55228475,9 8,9 C7.44771525,9 7,8.55228475 7,8 L7,3.41421356 L1.70710678,8.70710678 C1.31658249,9.09763107 0.683417511,9.09763107 0.292893219,8.70710678 C-0.0976310729,8.31658249 -0.0976310729,7.68341751 0.292893219,7.29289322 L5.58578644,2 Z"></path>
                </g>
            </g>
        </g>
    </g>
</svg>